<svg width="900" height="1200" viewBox="0 0 900 1200" fill="none" xmlns="http://www.w3.org/2000/svg">
  <defs>
    <linearGradient id="bgC" x1="153" y1="64" x2="744" y2="1124" gradientUnits="userSpaceOnUse">
      <stop stop-color="#3A4C5A"/>
      <stop offset="0.34" stop-color="#4A465D"/>
      <stop offset="0.7" stop-color="#6A596B"/>
      <stop offset="1" stop-color="#A8877A"/>
    </linearGradient>
    <radialGradient id="mistC" cx="0" cy="0" r="1" gradientUnits="userSpaceOnUse" gradientTransform="translate(436 839) rotate(90) scale(289 348)">
      <stop stop-color="#E6D8D1" stop-opacity="0.28"/>
      <stop offset="1" stop-color="#E6D8D1" stop-opacity="0"/>
    </radialGradient>
    <linearGradient id="bodyC" x1="309" y1="449" x2="614" y2="960" gradientUnits="userSpaceOnUse">
      <stop stop-color="#8F7A73"/>
      <stop offset="0.45" stop-color="#685C61"/>
      <stop offset="1" stop-color="#4D4758"/>
    </linearGradient>
    <linearGradient id="bellyC" x1="401" y1="551" x2="511" y2="911" gradientUnits="userSpaceOnUse">
      <stop stop-color="#F3E3D9"/>
      <stop offset="0.58" stop-color="#E8CDBD"/>
      <stop offset="1" stop-color="#D0AE9A"/>
    </linearGradient>
    <radialGradient id="headC" cx="0" cy="0" r="1" gradientUnits="userSpaceOnUse" gradientTransform="translate(489 316) rotate(90) scale(160 183)">
      <stop stop-color="#EAD0BC"/>
      <stop offset="0.7" stop-color="#C8A68F"/>
      <stop offset="1" stop-color="#967765"/>
    </radialGradient>
    <linearGradient id="shellC" x1="474" y1="702" x2="601" y2="782" gradientUnits="userSpaceOnUse">
      <stop stop-color="#F5E8DD"/>
      <stop offset="0.45" stop-color="#DDB695"/>
      <stop offset="1" stop-color="#BB8667"/>
    </linearGradient>
    <filter id="shadowC" x="180" y="131" width="575" height="886" filterUnits="userSpaceOnUse">
      <feDropShadow dx="0" dy="26" stdDeviation="28" flood-color="#150F18" flood-opacity="0.28"/>
    </filter>
    <filter id="grainC" x="-20%" y="-20%" width="140%" height="140%">
      <feTurbulence type="fractalNoise" baseFrequency="0.82" numOctaves="2" stitchTiles="stitch" result="noise"/>
      <feColorMatrix in="noise" type="saturate" values="0"/>
      <feComponentTransfer>
        <feFuncA type="table" tableValues="0 0.06"/>
      </feComponentTransfer>
    </filter>
  </defs>

  <rect width="900" height="1200" rx="48" fill="url(#bgC)"/>
  <g opacity="0.48">
    <path d="M88 258C195 199 316 197 418 239C512 278 607 280 736 224" stroke="#DFE5E8" stroke-opacity="0.17" stroke-width="9" stroke-linecap="round"/>
    <path d="M92 919C219 845 359 836 486 878C596 915 691 910 806 844" stroke="#EADAD3" stroke-opacity="0.14" stroke-width="8" stroke-linecap="round"/>
    <path d="M157 332C236 304 340 303 438 344C542 388 635 387 741 335" stroke="#D8ECE8" stroke-opacity="0.12" stroke-width="7" stroke-linecap="round"/>
  </g>
  <ellipse cx="434" cy="840" rx="252" ry="158" fill="url(#mistC)"/>

  <g filter="url(#shadowC)">
    <path d="M322 516C281 569 262 639 267 729C273 859 346 938 470 938C594 938 664 850 664 736C664 645 617 564 555 513C517 482 467 463 417 468C380 471 349 483 322 516Z" fill="url(#bodyC)"/>
    <path d="M352 560C319 600 305 657 308 732C312 816 362 886 468 886C566 886 622 824 622 743C622 672 587 612 540 574C503 543 458 528 407 535C384 539 366 545 352 560Z" fill="url(#bellyC)"/>

    <path d="M270 676C240 730 239 785 262 818C281 844 313 847 343 824C367 806 382 779 389 744C398 698 393 650 370 628C348 606 293 634 270 676Z" fill="#50434B"/>
    <path d="M610 648C658 686 683 736 678 780C674 821 647 846 615 844C587 842 559 821 529 782C508 753 506 712 521 683C541 643 579 623 610 648Z" fill="#534A59"/>

    <path d="M483 734C509 711 532 704 554 710C577 717 593 738 598 762C585 776 567 788 545 796C523 805 500 808 477 804C456 800 441 791 433 776C443 760 457 749 483 734Z" fill="url(#shellC)" stroke="#F1DFD2" stroke-opacity="0.48" stroke-width="3"/>
    <path d="M499 726C522 742 552 748 580 740" stroke="#A46B4B" stroke-opacity="0.5" stroke-width="4" stroke-linecap="round"/>
    <path d="M511 713C520 730 536 741 552 747" stroke="#FFEEE3" stroke-opacity="0.35" stroke-width="3" stroke-linecap="round"/>

    <path d="M382 208C348 239 329 282 332 334C335 380 353 423 385 449C417 475 455 485 494 481C532 477 565 461 591 432C616 404 626 363 620 318C614 273 592 236 554 206C526 184 496 177 456 181C425 184 402 190 382 208Z" fill="url(#headC)"/>
    <path d="M376 198C360 207 348 223 344 243C359 240 372 233 383 222C390 215 391 203 387 197C384 192 381 194 376 198Z" fill="#967562"/>
    <path d="M561 193C577 200 590 216 595 236C579 235 564 230 551 220C543 214 545 197 561 193Z" fill="#9A7966"/>

    <ellipse cx="444" cy="328" rx="42" ry="49" fill="#FEF8F4"/>
    <ellipse cx="523" cy="323" rx="39" ry="45" fill="#FEF8F4"/>
    <circle cx="447" cy="330" r="14.5" fill="#282429"/>
    <circle cx="520" cy="326" r="13.5" fill="#282429"/>
    <circle cx="452" cy="324" r="4.1" fill="white"/>
    <circle cx="525" cy="320" r="4.1" fill="white"/>
    <ellipse cx="486" cy="375" rx="50" ry="36" fill="#F2E1D6"/>
    <path d="M470 366C480 358 492 359 503 367L486 382L470 366Z" fill="#2F292C"/>
    <path d="M475 393C482 401 495 402 503 393" stroke="#876559" stroke-width="6" stroke-linecap="round"/>

    <path d="M424 372C401 369 384 361 373 345" stroke="#9A7669" stroke-opacity="0.48" stroke-width="4" stroke-linecap="round"/>
    <path d="M543 365C564 359 582 348 594 333" stroke="#9A7669" stroke-opacity="0.48" stroke-width="4" stroke-linecap="round"/>

    <path d="M419 390C394 389 368 395 339 411" stroke="#594A4F" stroke-width="4" stroke-linecap="round"/>
    <path d="M421 402C392 405 367 415 344 434" stroke="#594A4F" stroke-width="4" stroke-linecap="round"/>
    <path d="M550 385C578 385 606 390 633 402" stroke="#594A4F" stroke-width="4" stroke-linecap="round"/>
    <path d="M548 398C576 403 599 414 620 431" stroke="#594A4F" stroke-width="4" stroke-linecap="round"/>

    <path d="M391 826C422 838 451 843 476 842C496 842 513 837 529 824C545 810 552 792 547 771C543 753 525 737 506 739C491 741 481 753 478 766C474 780 480 793 491 800C468 806 444 804 421 794C409 788 400 790 394 799C390 807 389 817 391 826Z" fill="#F5E0D2" fill-opacity="0.16"/>
  </g>

  <g opacity="0.4" filter="url(#grainC)">
    <rect width="900" height="1200" rx="48" fill="#fff"/>
  </g>
</svg>
