<svg width="900" height="1200" viewBox="0 0 900 1200" fill="none" xmlns="http://www.w3.org/2000/svg">
  <defs>
    <linearGradient id="bgB" x1="125" y1="52" x2="784" y2="1132" gradientUnits="userSpaceOnUse">
      <stop stop-color="#6B9C98"/>
      <stop offset="0.28" stop-color="#5F7E8D"/>
      <stop offset="0.6" stop-color="#7C6786"/>
      <stop offset="1" stop-color="#D3A68F"/>
    </linearGradient>
    <radialGradient id="poolB" cx="0" cy="0" r="1" gradientUnits="userSpaceOnUse" gradientTransform="translate(444 792) rotate(90) scale(341 316)">
      <stop stop-color="#F4E8DD" stop-opacity="0.3"/>
      <stop offset="1" stop-color="#F4E8DD" stop-opacity="0"/>
    </radialGradient>
    <linearGradient id="bodyB" x1="291" y1="447" x2="575" y2="968" gradientUnits="userSpaceOnUse">
      <stop stop-color="#8A7D76"/>
      <stop offset="0.48" stop-color="#6C625C"/>
      <stop offset="1" stop-color="#564B48"/>
    </linearGradient>
    <linearGradient id="bellyB" x1="421" y1="495" x2="476" y2="895" gradientUnits="userSpaceOnUse">
      <stop stop-color="#F7EEE6"/>
      <stop offset="0.5" stop-color="#ECD8C7"/>
      <stop offset="1" stop-color="#D9C1AA"/>
    </linearGradient>
    <radialGradient id="headB" cx="0" cy="0" r="1" gradientUnits="userSpaceOnUse" gradientTransform="translate(468 327) rotate(90) scale(145 167)">
      <stop stop-color="#F0DEC7"/>
      <stop offset="0.65" stop-color="#D7B697"/>
      <stop offset="1" stop-color="#B98E72"/>
    </radialGradient>
    <filter id="paintB" x="-15%" y="-15%" width="130%" height="130%">
      <feTurbulence type="fractalNoise" baseFrequency="0.015" numOctaves="2" seed="8" result="noise"/>
      <feDisplacementMap in="SourceGraphic" in2="noise" scale="8"/>
    </filter>
    <filter id="grainB" x="-20%" y="-20%" width="140%" height="140%">
      <feTurbulence type="fractalNoise" baseFrequency="0.9" numOctaves="2" stitchTiles="stitch" result="noise"/>
      <feColorMatrix in="noise" type="saturate" values="0"/>
      <feComponentTransfer>
        <feFuncA type="table" tableValues="0 0.07"/>
      </feComponentTransfer>
    </filter>
  </defs>

  <rect width="900" height="1200" rx="48" fill="url(#bgB)"/>
  <g opacity="0.45">
    <path d="M112 210C198 183 295 181 388 216C481 250 591 257 742 183" stroke="#D9F0EA" stroke-opacity="0.25" stroke-width="9" stroke-linecap="round"/>
    <path d="M89 289C220 248 353 251 467 308C585 367 696 364 798 298" stroke="#F5F0E6" stroke-opacity="0.15" stroke-width="7" stroke-linecap="round"/>
    <path d="M111 871C243 840 374 846 492 890C609 935 690 934 792 892" stroke="#E6D8DF" stroke-opacity="0.16" stroke-width="8" stroke-linecap="round"/>
  </g>
  <ellipse cx="442" cy="794" rx="278" ry="152" fill="url(#poolB)"/>

  <g filter="url(#paintB)">
    <path d="M339 489C281 539 238 623 243 740C249 862 319 943 441 939C565 935 631 844 630 730C629 628 587 537 532 486C491 447 440 438 339 489Z" fill="url(#bodyB)"/>
    <path d="M349 535C305 575 279 634 281 734C284 826 339 892 442 889C548 886 592 822 592 736C592 651 560 586 517 547C477 510 437 499 349 535Z" fill="url(#bellyB)"/>

    <path d="M322 665C293 710 286 759 303 789C318 814 347 819 372 802C395 786 408 756 410 720C413 679 399 633 374 620C358 612 336 642 322 665Z" fill="#60524F"/>
    <path d="M572 650C608 697 621 748 608 783C596 817 567 828 537 814C513 803 496 774 489 738C480 694 487 648 509 624C526 606 553 623 572 650Z" fill="#665651"/>

    <path d="M412 767C431 749 451 740 468 742C489 744 507 759 513 778C497 796 472 808 442 808C418 808 401 798 391 781C396 775 402 772 412 767Z" fill="#D9B79B"/>
    <path d="M422 760C437 773 464 780 495 772" stroke="#A56D4E" stroke-opacity="0.45" stroke-width="4" stroke-linecap="round"/>

    <path d="M362 220C330 244 309 286 310 331C311 372 325 415 355 442C385 469 424 482 461 481C495 481 526 471 551 450C581 425 598 385 597 335C596 291 577 249 543 222C516 201 486 190 454 192C421 193 391 201 362 220Z" fill="url(#headB)"/>
    <path d="M350 211C336 220 327 236 326 255C338 252 350 246 361 236C369 228 366 210 350 211Z" fill="#B48871"/>
    <path d="M544 210C558 216 569 232 571 250C559 247 547 240 536 230C529 223 529 207 544 210Z" fill="#B3866E"/>

    <ellipse cx="414" cy="334" rx="43" ry="50" fill="#FDF6F0"/>
    <ellipse cx="496" cy="333" rx="41" ry="48" fill="#FDF6F0"/>
    <circle cx="417" cy="335" r="13.5" fill="#302629"/>
    <circle cx="494" cy="333" r="13" fill="#302629"/>
    <circle cx="422" cy="329" r="4.2" fill="white"/>
    <circle cx="499" cy="327" r="4.2" fill="white"/>
    <ellipse cx="456" cy="379" rx="52" ry="38" fill="#F2E1D5"/>
    <path d="M439 369C449 361 460 361 472 369L456 385L439 369Z" fill="#312628"/>
    <path d="M444 397C451 404 463 405 470 396" stroke="#8B6557" stroke-width="6" stroke-linecap="round"/>

    <path d="M392 377C369 370 353 359 344 342" stroke="#A07966" stroke-opacity="0.5" stroke-width="4" stroke-linecap="round"/>
    <path d="M515 374C536 368 552 355 562 337" stroke="#A07966" stroke-opacity="0.5" stroke-width="4" stroke-linecap="round"/>

    <path d="M385 390C354 388 331 393 308 410" stroke="#5D4947" stroke-width="4" stroke-linecap="round"/>
    <path d="M389 404C359 406 338 414 318 430" stroke="#5D4947" stroke-width="4" stroke-linecap="round"/>
    <path d="M519 389C550 388 573 393 595 409" stroke="#5D4947" stroke-width="4" stroke-linecap="round"/>
    <path d="M517 404C546 406 568 414 588 429" stroke="#5D4947" stroke-width="4" stroke-linecap="round"/>

    <path d="M377 583C403 565 431 556 455 555C479 554 506 559 532 576C554 590 571 608 585 632C570 616 551 603 530 594C502 583 468 580 433 585C405 589 382 598 361 615C363 604 367 594 377 583Z" fill="#F9E8DE" fill-opacity="0.12"/>
  </g>

  <g opacity="0.45" filter="url(#grainB)">
    <rect width="900" height="1200" rx="48" fill="#fff"/>
  </g>
</svg>
